General

Format:AVI
File size: 2.37 GiB
Duration: 1h 35mn
Overall bit rate: 3 538 Kbps
IMDB Rating: 6.5/10   659 votes
Genre: Drama
Release Date: 16 April 2010            
IMDb Link: http://www.imdb.com/title/tt1285309/
Source: 1080p Bluray x264-MACHD

Video

Format: MPEG-4 Visual
Format profile: Streaming Video@L1
Format settings, BVOP: Yes
Format settings, QPel: No
Format settings, GMC: No warppoints
Format settings, Matrix: Default (H.263)
Muxing mode: Packed bitstream
Codec ID: XVID
Bit rate: 3 078 Kbps
Width: 1 280 pixels
Height: 544 pixels
Display aspect ratio: 2.35
Frame rate: 23.976 fps
Resolution: 24 bits
Colorimetry: 4:2:0
Scan type: Progressive
Bits/(Pixel*Frame): 0.184
Stream size: 2.06 GiB (87%)

Audio

Format: AC-3
Bit rate mode: Constant
Bit rate: 448 Kbps
Channel(s): 6 channels
Sampling rate: 48.0 KHz
Stream size: 307 MiB (13%)